<?xml version="1.0" encoding="UTF-8"?>
<svg id="Layer_2" data-name="Layer 2" xmlns="http://www.w3.org/2000/svg" viewBox="0 0 590.03 121.99">
  <defs>
    <style>
      .cls-1 {
        fill: #3a3ef1;
      }
    </style>
  </defs>
  <g id="Layer_1-2" data-name="Layer 1">
    <g>
      <path class="cls-1" d="M101.89,67.74L62.75,1.27c-.79-.94-1.49-1.36-2.29-1.25-2.22.29-12.2,18.75-14.15,22.7l27.35,46.14c9.73-.44,18.58,1.53,28.22-1.12Z"/>
      <path class="cls-1" d="M104.87,78.21l-51.61.27c-4.56,8.09-9.72,14.56-13.54,24.2l82.07-.02c-3.08-8.51-7.76-13.7-11.32-20.85-1.13-2.26-3.25-3.6-5.6-3.59Z"/>
      <path class="cls-1" d="M53.05,52.76l-10.54-17.45c-.51-.84-1.47-1.39-2.11-1.38-.54,0-1.49.52-2.06,1.48L.25,99.88c-.61,1.02.03,2.26.59,2.45,2.57.88,21.8.95,27.04.05l25.27-42.54c1.44-2.43,1.34-4.69-.1-7.07Z"/>
      <path d="M181,42.3c-18.74-5.02-32.84,8.18-30.09,14.47,1.02,2.33,7.42,2.33,9.06.34,4.26-5.15,9.16-7.3,15.88-6.09,6.16,1.11,11.15,5.82,9.79,12.57l-18.55,3.11c-10.84,1.82-21.76,8.28-20.69,20.49.42,4.85,3.61,9.88,9.12,12.16,10.14,4.21,22.23,2.24,29.85-5.06.67,2.08.7,4.26,1.59,5.09,1.7,1.57,8.58,1.82,8.79-.66,1.07-12.82.45-25.21.34-37.99-.08-9.03-6.74-16.2-15.09-18.43ZM177.98,89.28c-4.84,2.86-10.68,3.3-15.75,1.88-3.53-.99-5.52-3.73-5.43-6.92.29-9.56,21.51-10.06,28.88-11.6,1.03,7.12-1.62,13.06-7.7,16.64Z"/>
      <path d="M579.6,43.78l-18.69,38.6-18.94-38.98c-1.86-2.45-8.47-1.51-9.78,1.05l22.92,50.34-10.83,24.78c.81,2.79,8.6,3.33,9.84.7l35.92-76.31c-3.52-2.26-9.11-2.94-10.44-.19Z"/>
      <path d="M397.6,41.13c-11.59-.25-21.61,6.58-25.09,17.82-2.51,8.11-2.37,17.17.32,25.23,3.96,11.88,14.97,18.36,27.16,17.27,7.02-.63,13.95-2.34,18.74-7.7,1.68-1.88,4.35-5.18,2.43-7.69-1.77-2.31-7.12-1.88-9.17.19-4.58,4.63-9.46,5.76-15.41,5.68-9.22-.13-16.05-7.24-15.2-16.46l41.6-.31c1.81-8.45.2-17.16-4.53-24.07-4.74-6.94-12.52-9.78-20.85-9.96ZM413.22,66.07l-31.93.03c-.38-9.69,7.97-15.96,17.38-15.34,8.24.54,15.23,6.32,14.55,15.31Z"/>
      <path d="M333.72,41.18c-7.39-.18-14.52,1.7-18.82,7.56l-.9-26.22c-.54-2.35-9.36-2.18-9.47.26l.05,75.93c0,2.67,9.61,2.46,9.64-.13l.44-32.78c.12-9.39,6.92-15.14,16.05-15.14,23.22.01,13.56,26.82,16.63,48.18.35,2.44,9.1,2.27,9.3-.1.98-11.85.59-23.29.27-34.95-.36-13.11-10.44-22.3-23.18-22.62Z"/>
      <path d="M501.6,41.08c-7.96,0-14.64,2.59-19.42,9.61-3.88-6.12-9.63-8.93-16.56-9.49-7.22-.58-13.68,1.77-17.72,7.67,0-2.18.43-3.71-.62-5.25-1.5-2.2-9.79-1.95-9.77,1.21l.37,53.67c.02,2.79,9.21,2.79,9.53.06,2.54-21.72-5.85-47.86,14.14-47.89,7.68-.01,12.99,5.06,13.17,12.75l.81,35.27c.06,2.53,9.21,2.8,9.27-.29l.69-34.59c.16-8.07,6.07-13.37,14.09-13.12,7.15.22,12.37,5.08,12.52,12.39l.74,35.42c.06,2.67,9.19,2.96,9.39.05.9-12.89.87-25.69.04-38.17-.78-11.82-9.48-19.3-20.69-19.3Z"/>
      <path d="M265.18,50.78c15.22-.08,13.46,11.71,19.12,11.72,2.16,0,5.82.32,5.93-2.7.17-4.51-2.68-8.69-6.16-11.72-9.85-8.58-25.8-9.69-36.29-1.47-13.53,10.6-14.15,41.1,1.53,50.72,9.75,5.98,22.61,5.61,32.14-.61,4.76-3.1,9.07-8.17,8.74-14.05-.18-3.17-4.53-2.45-6.77-2.34-2.51.13-2.64,2.69-4.74,5.4-6.7,8.66-21.87,8.53-27.48-1.26-4.5-7.86-4.08-18.61-.1-26.33,2.82-5.47,8.92-7.34,14.07-7.36Z"/>
      <path d="M213.09,22.77l.02,75.91c3.21,2.5,7.35,2.85,10.4-.35l-.08-75.57c-3.18-2.5-7.14-2.52-10.33,0Z"/>
    </g>
  </g>
</svg>