<?xml version="1.0" encoding="UTF-8"?>
<svg id="Layer_2" data-name="Layer 2" xmlns="http://www.w3.org/2000/svg" viewBox="0 0 1586.79 398.96">
  <defs>
    <style>
      .cls-1 {
        fill: #ef3603;
      }
    </style>
  </defs>
  <g id="Layer_1-2" data-name="Layer 1">
    <path class="cls-1" d="M399.76,398.96H0L.12,0h399.53s.11,398.96.11,398.96ZM238.73,196.85c10.61-10.6,12.42-23.3,11.98-36.29,1.85-26.45-17.79-49.61-44.59-49.66l-62.07-.1v177.36s69.34-.39,69.34-.39c27.1-.15,43.64-24.78,42.78-50.39-.55-16.33-4.54-31.05-17.43-40.54Z"/>
    <path d="M581.15,198.41c9.89,8.31,12.08,18.36,12.58,29.98.86,19.92-12.79,37.52-33.63,37.49l-49.28-.08.02-130.89,46.34.05c20.09.02,34.33,17.91,32.4,37.52.51,9.38-1.1,17.81-8.43,25.92ZM571.27,171.99c-.13-9.9-4.77-18.29-15.3-18.36-8.66-.06-17.55-.29-26.26.19l.16,36.96,25.23.21c11.07.09,16.33-8.37,16.19-18.99ZM575.01,227.86c-.1-9.57-4.75-17.97-14.93-17.95l-30.25.06v37.03s30.26.1,30.26.1c10.76.04,15.03-9.09,14.92-19.24Z"/>
    <path d="M1292.05,233.03c-.04,20.15-17.81,34.58-37.27,32.84-3.85-.34-8.28,1.42-11.39-.53l-14.56-9.12-.94,9.6-18.51.1.19-132.71,18.52-.07.34,46.98,15.42-9.16c3.88-2.3,9.83-.46,14.66-.46,18.8-.02,33.63,15.14,33.59,33.88l-.06,28.66ZM1256.33,247.25c9.83.62,17.05-6.48,17.04-15.86l-.04-27c-.01-9.08-7.44-15.84-16.56-15.23-2.4.16-5.58-.83-7.63.53l-20.7,13.78-.11,29.12,19.15,13.18c2.49,1.71,5.32,1.25,8.85,1.47Z"/>
    <path d="M885.77,170.41l18.52-.07.1,42.98-17.87,52.43c-5.55.3-10.53.3-16,0l-17.94-43.9-18.08,43.87c-5.48.36-10.46.31-16.03.01l-17.63-51.85-.08-43.55,18.51.02c1.21,32.8-3.34,33.08,9.61,65.78l16.02-48.87,15.1-.14,16.21,49.01c12.63-32.53,8.65-31.88,9.57-65.75Z"/>
    <path d="M1373.53,265.81l-.84-9.64c-18.5,10.46-8.41,10.29-31.08,9.62-18.06-.53-32.25-15.48-32.27-33.31l-.03-28.13c-.02-18.39,14.29-33.4,32.8-33.83,5.05-.12,11.41-1.99,15.48.44l15.07,9.04c.96-3.36.25-6.14.55-9.53l18.68.04.02,95.08c-5.99.66-11.88.31-18.38.22ZM1373.15,232.7l-.17-29.19-20.78-13.74c-2.28-1.51-5.82-.52-8.57-.58-8.68-.19-15.54,6.55-15.5,15.2l.13,29.09c.03,5.8,4.82,11.48,10.59,12.91,15.92,3.95,19.89-5.31,34.3-13.7Z"/>
    <path d="M1063.5,247.04c9.53,0,15.44-8.12,15-16.86l18.82-.48c.83,17.86-12.12,34.9-31.37,36.05-6.82.41-13.31.41-20.16-.02-17.55-1.1-31.12-15.87-31.11-33.3l.02-29.03c0-17.75,14.09-31.87,31.79-32.89,6.37-.37,12.42-.3,18.77,0,18.23.86,32.13,15.65,32,33.85l-.13,18.17-62.41.25c-2.15,0-1.13,5.14-1.29,6.68-.97,9.18,5.65,17.55,15.44,17.56h14.64ZM1078.25,207.42c1.58-10.6-5.73-18.32-15.35-18.29h-14.07c-9.91-.02-17.13,8.57-15.04,18.44l44.47-.15Z"/>
    <path d="M1555.19,247.03c9.2,0,15.43-7.63,14.95-16.71,5.51-.45,10.45-.26,16.38-.09-.72,5.08,1.29,10.31-.47,15.02-4.36,11.68-15.94,19.83-28.34,20.5-6.69.36-12.61.31-19.25.05-17.54-.71-31.98-14.99-32-32.5l-.04-29.79c-.02-18.15,14.52-33.05,32.54-33.08l18.01-.03c13.2.91,24.68,8.62,29.54,21.02l-.03,31.06-60.06.3c-2.15.01-1.13,5.12-1.28,6.66-.89,9.22,5.61,17.56,15.43,17.57h14.64ZM1569.93,207.42c1.68-10.63-5.71-18.32-15.35-18.29h-14.07c-9.88-.02-17.05,8.6-15.04,18.42l44.46-.14Z"/>
    <path d="M750.75,265.94l-15.77-.02c-18.07-.02-33.09-14.39-33.1-32.51l-.02-30.01c0-18.12,14.61-32.36,32.59-32.95,5.9-.2,11.33-.16,17.21,0,18.1.54,32.66,14.8,32.68,32.97l.05,29.01c.03,18.47-14.64,33.52-33.64,33.5ZM751.69,247.07c8.26-.34,13.84-7.02,13.84-14.62v-28.04c.02-8.33-6.06-15.18-14.45-15.21l-15.06-.06c-8.72-.03-15.47,6.53-15.43,15.28l.12,29.04c.03,7.63,6.75,13.46,14.3,13.65,5.48.14,10.6.22,16.68-.03Z"/>
    <path d="M974.99,265.26c-10.83,1.09-21.23,1.26-31.31-.05-15.57-2.03-26.56-15.3-24.52-30.53,6.33-.34,12.11-.3,18.61,0-1.2,6.78,2.59,12.84,9.6,13.48,8.22.74,16.61.66,24.86-.05,4.16-.36,7.53-3.21,8.39-6.84s-.85-7.18-4.23-9.63c-13.9-10.07-59.44-5.98-56.1-38.59,1.09-10.65,9.22-19.71,21.28-21.64,10-1.6,20.81-1.7,31.09-.25,14.39,2.03,24.56,14.76,23.62,28.51l-19.11.49c1.43-5.05-2.15-11.3-8.33-11.91-7.61-.75-15.22-.49-22.75,0-3.66.23-6.25,3.13-6.81,5.74-2.61,11.99,25.4,10.48,45.37,20.92,14.33,7.49,19.78,25.27,10.54,38.95-4.28,6.33-12.02,10.59-20.2,11.42Z"/>
    <path d="M1465.04,265.51c-10.41.6-20.15,1.05-29.67-.27-15.54-2.17-26.49-15.26-24.5-30.59l18.59.03c-1.04,6.76,2.66,12.88,9.65,13.48,8.23.71,16.6.67,24.85-.05,4.14-.36,7.56-3.24,8.43-6.89s-1.12-7.79-4.85-10.08c-15.44-9.48-58.71-6.17-55.49-38.1,1.07-10.61,9.22-19.72,21.22-21.62,10.02-1.59,20.83-1.71,31.11-.27,14.48,2.03,24.55,14.74,23.7,28.58l-19.19.42c1.56-5.08-2.11-11.3-8.34-11.9-7.6-.73-15.21-.52-22.73.01-3.59.26-6.28,3.18-6.82,5.72-2.65,12.29,26.85,10.47,45.96,21.25,7.29,4.11,12.44,10.84,13.74,17.58,1.74,9.08.21,17.37-5.92,23.74-4.89,5.08-12.05,8.52-19.72,8.96Z"/>
    <path d="M1175.61,211.72c-.16-4.76.54-8.44-.79-13.16-1.45-5.1-7.86-11.49-13.61-8.77-8.83,4.17-15.85,10.7-24.74,15.91l-.23,60.02-18.83.2.18-95.56,18.53-.03.72,13.63,20.12-13.21c15.17-2.49,29.37,5.81,35.01,20.21,2.56,6.52,3.01,13.25,2.29,20.57l-18.65.18Z"/>
    <path d="M671.31,211.7l-.47-10.7c-.25-5.63-6.81-13.89-13.55-11.26-9.17,3.57-16.28,10.98-25.45,15.87l-.13,59.99c-6.01.67-11.89.28-18.72.23v-95.3s18.49-.21,18.49-.21l.73,13.98,20.09-13.55c15.4-2.53,29.94,6.05,35.36,20.89,2.39,6.53,2.79,13.34,1.89,20.02l-18.25.04Z"/>
    <path class="cls-1" d="M230.24,245.02c-1.28,10.92-10.32,17.83-20.82,17.79l-39.84-.17.04-50.48,41.57.09c10.9.02,19.24,9.31,19.11,20.02l-.06,12.74Z"/>
    <path class="cls-1" d="M225.29,166.27c.14,11.12-8.21,20.35-19.1,20.37l-36.59.06.07-50.51,34.77-.1c11.71-.03,20.97,8.68,20.84,20.46v9.72Z"/>
  </g>
</svg>