<?xml version="1.0" encoding="UTF-8"?>
<svg id="Layer_2" data-name="Layer 2" xmlns="http://www.w3.org/2000/svg" viewBox="0 0 3778.5 588.47">
  <defs>
    <style>
      .cls-1 {
        fill: #4169e2;
      }
    </style>
  </defs>
  <g id="Layer_1-2" data-name="Layer 1">
    <g>
      <path class="cls-1" d="M480.4,588.08l-368.67.39C49.17,588.54,0,539.22,0,476.82V111.4C0,50.22,47.92,0,109.69,0h369.44c61.76,0,109.7,50.23,109.7,111.38v365.53c-.01,59.92-46.5,111.1-108.44,111.16ZM478.22,260.13c0-7.91-6.08-11.94-12.94-11.93l-203.71.07c-8,0-13.38-5.23-13.22-13.08.35-17.19-4.34-42.45,11.28-42.02l206.81-.11c6.89,0,11.79-5.31,11.8-11.78l.08-58.13c.01-7.78-4.92-12.88-13.19-12.88H123.71c-8.32,0-13.19,4.93-13.19,13.1l.02,251.53c.77,6.07,4.75,10.98,10.97,10.99l115.91.04c7.03,0,10.99-6.38,11-12.62l.02-30.11c0-6.69,4.01-11.52,11.15-12.21l208.42-.04c6.21-1.4,10.23-5.44,10.23-11.8l-.03-59.02ZM238.23,477.97c6.36-1.45,9.51-5.51,10.1-10.84v-32.15c.01-6.73-4.66-11.51-11.29-12.04h-115.17c-6.61.52-11.29,5.35-11.28,12.06l.04,32.1c.65,6.07,4.72,10.19,10.9,10.84l116.71.03Z"/>
      <path class="cls-1" d="M1460.48,513.5l-120.95-136.37c-8.49-9.57-19.5-14.94-32.35-14.93l-88.03.06c-5.09,0-9.96,4.14-9.97,9.34l-.23,139.34c0,5.48-4.31,10.11-9.81,10.11l-136,.02c-5.8,0-10.01-4.12-10.01-10.44V77.63c0-6.64,4.12-11.01,10.75-11l430.12.3c32.28.02,62.24,7.33,90.35,21.29,46.63,23.16,73.07,68.99,71.92,120.96.82,86.63-63.93,137.35-148.6,142.09l151.21,153.24c2.79,2.82,2.02,7.58,1.15,10.61-.77,2.66-4.27,5.95-9.15,5.95l-175.63.06c-6.67,0-10.73-3.07-14.78-7.62ZM1458.01,259.94c13.42-.02,25.24-4.31,33.75-12.26,13.77-12.87,17.23-35.6,7-51.86-8.11-12.9-23.64-21.21-39.83-21.25l-239.61-.56c-6.56-.02-10.46,5.65-10.47,11.27l-.02,63.81c0,5.42,4.09,11.17,10.53,11.16l238.64-.31Z"/>
      <path class="cls-1" d="M2583.1,362.42l-.47,148.5c-.02,6.05-4.14,9.54-9.86,10.21l-135.91-.07c-5.64,0-10.07-4.09-10.07-10.33V77.45c0-6.36,4.46-10.86,10.74-10.85l419.74.45c36.56.04,71.22,8.67,102.52,25.11,44.94,23.61,69.65,66.92,70.66,116.99,1.1,54.42-25.33,102.13-73.84,127.84-29.97,15.88-62.83,24.6-98.03,24.69l-275.47.73ZM2835.59,259.68c18.92-.05,33.98-11.83,39.05-24.66,6.75-17.1,4.62-35.51-8.5-47.17-10.18-9.05-23.39-13.56-37.59-13.57l-235.57-.16c-6.57,0-10.28,5.7-10.27,11.19v64c0,5.22,3.89,11.01,10.32,10.99l242.55-.62Z"/>
      <path class="cls-1" d="M3776.75,506.85c2.91,3.85,1.56,7.56.48,9.72-.85,1.7-3.53,3.35-6.95,3.35l-129.58-.02c-4.6,0-8.61-2.08-11.36-5.74l-115.71-153.78c-3.89-5.16-12.22-.47-15.07,2.62l-57.27,62.17-.66,85.81c-.04,4.75-3.32,8.92-8.41,8.92l-131.21-.04c-5.17,0-9.25-3.69-9.25-9.31l-.02-432.88c0-6.39,3.62-10.91,9.78-10.91l130.31.04c5.86,0,8.87,5.11,8.88,10.49l.17,165.3c0,4.4,8.36,5.06,11.26,1.88l156.19-171.34c3.62-3.97,7.13-6.47,12.63-6.47l141.1.05c3.33,0,5.83,1.76,6.8,3.35,1.43,2.32,2.44,7.06-.18,9.94l-164.64,180.42c-4.17,4.57-5.04,11.21-1.11,16.41l173.83,230.04Z"/>
      <path class="cls-1" d="M1999.39,341.67l-132.35.18c-6.45.46-11.14,4.72-11.15,11.21l-.15,54.05c.72,5.63,4.2,9.44,9.86,10.04h133.37c6.2.43,10.15,4.34,10.6,10.28l-.07,83.28c0,5.82-4.17,10.39-10.65,10.39l-273.57.03c-6.28-.85-9.47-3.91-10.14-10.46V77.57c.51-6.86,4.16-10.11,10.5-10.92h272.82c6.79,0,11.04,4.54,11.05,10.91l.11,81.56c0,6.35-3.86,11.56-10.69,11.56l-131.86.05c-5.95,0-11.13,4.32-11.13,10.42v48.09c0,5.98,5.24,10.49,11.18,10.5l131.72.15c6.79,0,10.79,5.04,10.79,11.33l-.1,79.62c0,5.19-3.42,10.83-10.12,10.84Z"/>
      <path class="cls-1" d="M2354.51,341.75l-131.56.13c-6.49,0-11.36,4.88-11.37,11.13l-.12,54.18c.75,5.25,4.28,9.91,9.96,9.91l133.42.06c5.8.5,10.53,4.4,10.53,10.29v83.19c0,5.7-4.26,10.46-10.54,10.46l-273.65.02c-6.34-.71-9.43-3.81-10.3-10.36V77.64c.7-6.58,4.13-10.94,10.66-10.94l272.84-.04c6.49,0,11.03,4.81,11.03,10.9l-.06,82.85c0,5.62-4.74,10.23-10.55,10.24l-131.81.05c-6.1,0-11.31,4.08-11.31,10.46v48.06c.01,6.12,5.3,10.53,11.3,10.54l131.78.12c6.11,0,9.94,4.26,10.67,9.95l-.02,80.95c0,6.23-4.54,10.97-10.89,10.98Z"/>
      <path class="cls-1" d="M991.78,249.1l-.02,81.68c0,6.18-4.55,11.01-10.88,11.02l-131.58.15c-6.43,0-11.4,4.67-11.41,11.21l-.18,157c0,5.89-4.29,10.96-10.28,10.96l-120.06-.08c-6.02,0-9.62-4.08-10.15-10.35l.02-433.22c0-6.52,4.54-10.75,10.65-10.75l272.83-.04c6.47,0,10.96,4.92,10.97,10.96l.06,82.81c-.77,5.91-4.47,9.79-10.64,10.25h-131.79c-6.08,0-11.29,4.13-11.29,10.45l-.04,48.1c0,6.17,5.24,10.59,11.35,10.59l131.78.09c5.46,0,9.22,3.4,10.67,9.16Z"/>
      <path class="cls-1" d="M3221.44,375.32l-136.61-.1c-5.97,0-10.23-4.18-10.23-10.38V77.52c0-6.53,4.33-10.81,10.53-10.81l134.68.05c6.04,0,10.43,4.35,10.43,10.7v287.39c0,5.55-2.8,8.78-8.8,10.46Z"/>
      <path class="cls-1" d="M3221.44,521.15l-136.82-.05c-5.88,0-9.97-4.4-9.98-10.08l-.05-63.95c0-6.02,4.4-10.52,10.58-10.52l134.6.04c5.98,0,10.45,4.64,10.45,10.39l-.04,64.07c0,4.96-2.73,8.78-8.75,10.1Z"/>
    </g>
  </g>
</svg>