<?xml version="1.0" encoding="UTF-8"?>
<svg id="Layer_2" data-name="Layer 2" xmlns="http://www.w3.org/2000/svg" viewBox="0 0 914.72 138.37">
  <defs>
    <style>
      .cls-1 {
        fill: #1d1d1d;
      }
    </style>
  </defs>
  <g id="Layer_1-2" data-name="Layer 1">
    <path class="cls-1" d="M63.69,0L0,69.18h34.52c5.26,0,9.89-3.47,11.37-8.52L63.69,0Z"/>
    <path class="cls-1" d="M40.71,77.7l-17.8,60.67,63.69-69.19h-34.52c-5.26,0-9.89,3.47-11.37,8.52h0Z"/>
    <path class="cls-1" d="M191.15,71.06l-8.68,44.26h-20.7l7.5-38.7c1.93-9.98,0-12.8-6.86-12.8-7.24,0-14.24,4.53-16.06,13.73l-7.38,37.78h-20.7l17.99-92.54h20.7l-6.98,35.84.12-.52c4.67-6.08,11.76-11.13,21.74-11.13,14.62,0,22.11,8.94,19.29,24.08h.03Z"/>
    <path class="cls-1" d="M227.5,117.14c-8.94,16.96-15.54,21.11-28.86,21.11-4.15,0-7.9-.52-11.91-1.41l2.45-15.14c5.19,1.04,10.35-.26,12.8-4.01,2.71-2.45,3.63-6.6,2.85-12.43l-10.87-56.17h20.3l6.6,43.49h.26l20.96-43.49h21.1l-35.72,68.05h.03Z"/>
    <path class="cls-1" d="M327.91,83.37c-4.15,21.08-17.21,34.03-34.16,34.03-10.23,0-16.29-5.68-18.25-9.2l-.78.52-5.68,29.5h-20.7l17.32-89.16h20.7l-1.04,5.82c3.37-3.49,10.87-7.9,19.55-7.9,18.25,0,27.41,13.99,23.03,36.36v.03ZM299.05,62.52c-9.05,0-16.29,7.24-19.03,20.85-2.33,12.28.89,18.51,8.68,18.51,9.05,0,16.29-7.24,19.03-20.85,2.33-12.28-.89-18.51-8.68-18.51Z"/>
    <path class="cls-1" d="M373.31,94.76h20.84c-6.2,14.36-17.73,22.64-35.06,22.64-22.63,0-33.9-16.03-29.23-38.7,4.01-19.55,18.51-31.69,38.95-31.69,23.29,0,32.35,17.07,27.67,40.37h-47.6c-1.82,10.09,4.79,14.51,11.5,14.51,7.75,0,12.28-3.89,12.94-7.12h-.03ZM351.31,75.73h27.16c1.67-10.35-3.23-14.5-10.49-14.5-8.53,0-14.88,5.16-16.69,14.5h.03Z"/>
    <path class="cls-1" d="M450.28,48.56l-2.97,17.73c-10.09-1.56-22.89,4.93-25.63,18.77l-5.94,30.28h-20.7l12.94-66.27h20.7l-2.19,10.87.12-.52c4.67-7.38,10.87-11.51,17.47-11.51,2.45,0,3.89.12,6.2.63Z"/>
    <path class="cls-1" d="M517.42,83.37c-4.15,21.08-17.21,34.03-34.16,34.03-10.23,0-16.29-5.68-18.25-9.2l-.78.52-1.3,6.6h-20.7l17.99-92.54h20.7l-6.08,32.09c3.37-3.49,10.87-7.9,19.54-7.9,18.25,0,27.42,13.99,23.03,36.36v.03ZM488.59,62.52c-9.05,0-16.29,7.24-19.03,20.85-2.33,12.28.89,18.51,8.68,18.51,9.05,0,16.29-7.24,19.03-20.85,2.33-12.28-.89-18.51-8.68-18.51Z"/>
    <path class="cls-1" d="M570.72,48.56l-2.97,17.73c-10.09-1.56-22.89,4.93-25.63,18.77l-5.94,30.28h-20.7l12.94-66.27h20.7l-2.19,10.87.11-.52c4.67-7.38,10.87-11.51,17.47-11.51,2.45,0,3.89.12,6.2.63Z"/>
    <path class="cls-1" d="M564.38,83.37c4.15-21.22,21.1-36.36,43.85-36.36,21.33,0,31.31,14.1,27.42,34.03-4.15,21.22-21.1,36.36-43.73,36.36s-31.45-14.1-27.56-34.03h.03ZM614.34,83.37c3.89-13.47-.26-20.85-9.97-20.85-8.53,0-15.25,6.34-18.62,18.51-3.89,13.47.26,20.85,10.09,20.85,8.42,0,15.14-6.34,18.51-18.51Z"/>
    <path class="cls-1" d="M657.67,49.08l2.08,40.37h.26l18.77-40.37h18.1l2.97,40.37h.26l17.84-40.37h20.96l-31.45,66.27h-19.29l-4.67-41.93h-.26l-20.96,41.93h-19.54l-5.56-66.27h20.5Z"/>
    <path class="cls-1" d="M791.17,94.35c0,16.18-12.68,23.04-30.41,23.04-24.33,0-31.19-11.13-31.19-23.56h19.14c-.64,6.6,4.01,9.31,11.5,9.31,6.46,0,10.35-2.34,10.35-6.86s-4.67-4.93-13.98-7.9c-11.39-3.63-20.7-8.16-20.7-18.77,0-14.25,12.54-22.64,29.23-22.64,23.15,0,29.23,11.25,29.23,21.86h-19.03c.38-5.31-4.15-7.64-10.21-7.64-5.19,0-8.68,1.56-8.68,5.16,0,4.01,3.11,4.67,11.91,7.38,11.91,3.75,22.77,8.8,22.77,20.59l.06.03Z"/>
    <path class="cls-1" d="M837.75,94.76h20.84c-6.2,14.36-17.73,22.64-35.05,22.64-22.63,0-33.9-16.03-29.23-38.7,4.01-19.55,18.51-31.69,38.95-31.69,23.29,0,32.34,17.07,27.67,40.37h-47.59c-1.82,10.09,4.79,14.51,11.5,14.51,7.76,0,12.28-3.89,12.94-7.12h-.03ZM815.76,75.73h27.16c1.67-10.35-3.23-14.5-10.49-14.5-8.53,0-14.88,5.16-16.69,14.5h.03Z"/>
    <path class="cls-1" d="M914.72,48.56l-2.97,17.73c-10.09-1.56-22.89,4.93-25.63,18.77l-5.94,30.28h-20.7l12.94-66.27h20.7l-2.19,10.87.11-.52c4.67-7.38,10.87-11.51,17.47-11.51,2.45,0,3.89.12,6.2.63Z"/>
  </g>
</svg>