<?xml version="1.0" encoding="UTF-8"?>
<svg id="Layer_2" data-name="Layer 2" xmlns="http://www.w3.org/2000/svg" viewBox="0 0 829.97 165.69">
  <defs>
    <style>
      .cls-1 {
        fill: #0092ff;
      }
    </style>
  </defs>
  <g id="Layer_1-2" data-name="Layer 1">
    <polygon points="352.25 144.58 351.54 49.65 313.89 144.64 296.16 144.66 258.75 49.86 257.96 144.59 237.47 144.71 237.38 18.06 265.87 17.99 305.04 117.49 344.23 17.97 372.1 17.95 372.09 144.7 352.25 144.58"/>
    <polygon class="cls-1" points="45.43 120.28 0 165.69 0 0 45.36 45.29 45.43 120.28"/>
    <polygon class="cls-1" points="120.46 164.34 120.34 45.31 165.25 .6 165.35 119.15 120.46 164.34"/>
    <path d="M713.53,131.5c-8.46,14.92-29.12,16.72-43.43,13.13-9.34-2.34-16.75-8.88-19.59-16.52-3.6-9.7-1.75-20.4,5.22-27.37,6.26-6.25,14.86-8.43,23.43-9.31l23.54-2.39c4.53-.46,7.89-2.51,8.24-7.14.53-6.96-2.93-12.9-10.2-14.42-9.93-2.07-27.59-1.39-28.08,13.35l-18.99-.12c.84-27.26,34.24-32.79,55.93-26.54,11.9,3.43,20.59,13.46,20.73,26.01l.51,45.39c.07,6.11,7.37,3.6,10.88,4.3v14.8c-8.98.64-23.93.37-25.77-10.99-.21-1.31-.7-2.19-2.42-2.19ZM680.17,130.97c9.88,2.39,20.35-.57,26.21-8.57,4.78-6.54,5.11-14.39,3.92-22.21-12.18,6.68-41.89-.46-41.32,17.96.19,6.19,4.31,11.16,11.2,12.82Z"/>
    <path d="M432.69,131.2c8.54-1.69,14.86-7.08,16.63-15.36l18.79-.07c-2.34,15.45-13.4,26.37-28.55,29.54s-30.72,1.19-42.62-8.44c-20.13-16.31-20.45-63.61,4.01-78.26,14.45-8.65,33.17-9.2,48.31-1.81,17.69,8.64,21.3,28.78,19.62,47.13l-66.65.08c-.04,7.34,1.97,14.94,7.08,20.5,5.74,6.24,14.76,8.39,23.38,6.68ZM450.06,89.79c-.15-4-1.05-6.48-1.69-8.98-2.96-9.46-10.95-13.74-20.28-14.22-13.97-.71-25.41,8.84-25.16,23.32l47.13-.12Z"/>
    <path d="M557.13,119.97c-1.21,28.38-41.3,31.29-64.2,21.84-10.7-4.42-17.31-13.61-18.08-24.99l19.68.22c1.55,16.53,25.26,17.39,36.3,12.83,4.45-1.84,6.96-6.29,6.98-10.5.08-17.34-39.77-7.53-54.92-24.37-5.72-6.36-7.32-14.79-4.99-23.34,6.49-23.8,50.77-24.53,66.71-10.62,5.95,5.19,9.96,11.74,9.27,19.82l-18.8-.02c-.11-7.71-6-12.93-13.19-13.91-9.09-1.24-24.62-.95-25.33,10.45-1.45,23.39,62.29,1.86,60.55,42.61Z"/>
    <path d="M626.6,142.92c-23.52,8.39-63.25,3.69-64.84-26.07h19.19c2.29,16.84,26.15,17.7,36.7,12.96,4.85-2.17,7.11-6.86,6.69-11.49-1.43-15.72-36.49-7.02-53.22-21.89-6.59-5.86-8.71-15.02-6.6-24.02,5.22-22.19,40.44-24.23,59.54-15.99,10.07,4.34,16.9,13.49,16.86,24.35l-18.98.03c-.32-6.07-3.8-11.02-9.48-12.85-10.11-3.26-29.54-2.22-29.4,10.21.05,4.52,3.84,9.01,8.69,9.92l29.46,5.56c7.17,1.35,14.52,4.65,18.7,11.02,9.05,13.8,2.83,32.49-13.33,38.25Z"/>
    <polygon class="cls-1" points="105.24 60.75 105.32 119.55 60.43 164.1 60.43 60.56 82.86 82.8 105.24 60.75"/>
    <path d="M769.61,144.59l-20.16.05V53.99s19.38-.06,19.38-.06c1.29,4.48-1.28,8.42,1.5,13.91,7.13-13.56,14.91-15.65,30.34-14.89l-.11,17.88c-7.94-1.96-16.93-.93-23.32,4.47-4.75,4.01-7.12,10.66-7.17,17l-.46,52.29Z"/>
    <polygon points="829.74 144.47 809.39 144.65 809.34 54.15 829.71 53.97 829.74 144.47"/>
    <polygon points="829.97 42.8 808.65 42.9 808.65 22.91 829.86 22.98 829.97 42.8"/>
  </g>
</svg>