<svg version="1.2" xmlns="http://www.w3.org/2000/svg" viewBox="0 0 1533 353" width="1533" height="353">
	<title>64f6f41dcae1161d9e6a7b43_White-svg</title>
	<defs>
		<clipPath clipPathUnits="userSpaceOnUse" id="cp1">
			<path d="m1 0.5h1531.2v352h-1531.2z"/>
		</clipPath>
	</defs>
	<style>
		.s0 { fill: #001321 } 
		.s1 { fill: #00ffa7 } 
	</style>
	<g id="Clip-Path" clip-path="url(#cp1)">
		<g id="Layer">
			<path id="Layer" fill-rule="evenodd" class="s0" d="m1270.5 118.4c46.4 0 81.4 34 81.4 86.1 0 4.6-0.3 9.6-0.7 14.9h-130.6c4.6 26.9 25.4 40.7 51.3 40.7 18.8 0 36.1-8.9 45.3-24.1l27.7 13.8c-14.6 27.6-43.6 42.5-74.4 42.5-47.1 0-84.6-35-84.6-87.5 0-52.4 38.2-86.4 84.6-86.4zm47.1 73c-3.6-25.9-22-40.8-46.7-40.8-24.9 0-45 13.1-50 40.8zm-534.4-68.8h34.7v165.4h-34.7v-27.9c-10.6 19.1-33.3 32.2-58.8 32.2-43.2 0-80.4-37.9-80.4-87.1 0-49.3 35.1-86.8 81.8-86.8 24.1 0 46.8 10.3 57.4 29zm-52.7 137.1c27.6 0 52.4-22.7 52.4-54.5 0-31.9-26.6-54.2-53.1-54.2-28.4 0-50.7 24.4-50.7 54.2 0 29.7 22.3 54.5 51.4 54.5zm735.5-141.3c41.8 0 66.2 28 66.2 75.1v94.5h-34.7v-92.4c0-26.9-15.9-43.2-37.5-43.2-21.7 0-47.9 12.4-47.9 46.7v88.9h-34.7v-165.4h34.7v25.5c9.6-20.5 36.2-29.7 53.9-29.7zm-524.1 0c41.7 0 66.2 28 66.2 75.1v94.5h-34.7v-92.4c0-26.9-16-43.2-37.6-43.2-21.6 0-47.8 12.4-47.8 46.7v88.9h-34.7v-165.4h34.7v25.5c9.6-20.5 36.1-29.7 53.8-29.7zm-362.2-56h35.4v225.7h-39.7l-102.3-169v169h-35.5v-225.7h40.8l101.3 168.6zm546.7 131.1c30.5 5.6 44.3 20.2 44.3 44.2 0 33-29.1 54.6-69.1 54.6-40 0-68.7-19.5-70.1-54.9h32.2c1.5 15.2 15.6 25.5 38.3 25.5 22.6 0 34-7.8 34-22.3 0-9.2-5.3-14.9-21.3-18.1l-33.3-6.4c-31.5-6-46-22.3-46-47.1 0-30.4 27.3-50.6 65.5-50.6 30.8 0 64.1 14.9 64.1 50.6h-33.3c-0.7-12.7-13.4-21.2-31.1-21.2-19.1 0-30.5 7.1-30.5 20.2 0 9.9 6.4 16.3 20.2 18.7l36.1 6.8z"/>
			<path id="Layer" fill-rule="evenodd" class="s1" d="m338.8 186.7q24.7 16.3 20.5 32.3l-3.2 11.6q-3.5 12.1-28.9 17.9-25.3 5.9-66.2 3.2c-11.7-0.7-23.9-2.1-36.4-4q-8.4 18.5-16.9 33.3-21.2 37.8-43.4 57.2-22.1 19.3-42.3 12.5l-8.5-2.8q-22.6-7.4-29.7-34.9-7.1-27.4-4.6-59.3 1.7-23.7-5.3-38.8-7.1-15-25.2-26-18.1-10.6-34.3-25.7-16.3-15-12.8-27.4l2.8-10.3q3.6-13.5 28-17.9 24.5-4.4 66.6 0.9 8.9 1.2 19 3 12.6-26.7 28.6-51.9 19-29.7 43.1-47.5 24.1-17.7 48.8-8.5l5.7 2.2q23.4 8.5 26.2 43.5 2.9 35.1-4.9 73.3-2.5 13.1 2.3 21.8 4.7 8.7 16.8 13.7 29.4 12.4 54.2 28.7zm-155.1-124.8q-17 27-30.4 56.7 30.1 6.6 60.5 15.3 14.1 3.9 23.2-1.2 9-5.1 11.5-19.3 4.9-29.8 2.1-59-2.8-29.2-20.5-34.2-24.5 6.8-46.4 41.6zm-3.2 141.5q19.8 5.1 39.7 9.2c3.2-8.1 6.3-16.3 9.1-24.7q4.6-13.2-0.3-22.5-5-9.4-18.4-13.3-31.9-9.6-63.6-16.5-0.4-0.1-0.9-0.2-0.2 0.4-0.3 0.7-9.9 24.8-0.6 42.7 9.4 17.9 35.3 24.6zm-97-47.2q16.3-7.1 26.7-27.5-8.9-1.4-16.5-2.1-47.4-4.3-69.4 5.7 7.5 9.2 18.4 16.6 21.6 15.6 40.8 7.3zm122.3 88.3q-16.1-3.1-33.1-7.4-26.9-6.7-42.9-2.1-15.9 4.6-18.4 20.9-3.5 22.3-1.9 42.5 1.6 20.2 11.9 34.7 14.8 1.7 33.9-15.6 19.2-17.4 37.6-48.9c4.3-7.3 8.6-15.4 12.9-24.1zm132.6-26.5q-7.1-18.8-55.9-40.4-12.8-5.7-22.3-1.3-9.6 4.5-14.6 18.3-3.6 10.9-7.7 21.4 15.5 2.8 30.9 5 44.1 6.2 69.6-3z"/>
		</g>
	</g>
</svg>