<svg version="1.2" xmlns="http://www.w3.org/2000/svg" viewBox="0 0 1545 644" width="1545" height="644">
	<title>Stripe_Logo,_revised_2016-svg</title>
	<style>
		.s0 { fill: #635bff } 
	</style>
	<g id="Layer">
		<path id="Layer" fill-rule="evenodd" class="s0" d="m1544.1 370.5h-209.8c4.7 50.7 41.6 65.3 83.2 65.3 42.5 0 76-9 105.2-23.6v85.8c-29.2 16.3-67.8 27.9-118.9 27.9-104.7 0-177.7-65.2-177.7-194.5 0-109 61.8-195.7 164-195.7 101.7 0 154.9 86.7 154.9 196.6 0 10.3-0.9 32.6-0.9 38.2zm-100.4-79c0-48.5-27.9-68.7-54.1-68.7-27 0-56.6 20.2-56.6 68.7z"/>
		<path id="Layer" fill-rule="evenodd" class="s0" d="m1206.8 328c0 136.1-69.9 197.9-146.8 197.9-37.7 0-60.5-15.9-75.9-27l-0.4 121.5-107.3 22.7v-500.6h94.4l5.6 26.7c15-13.8 42-33.5 84.1-33.5 75.1 0 145.9 67.8 146.3 192.3zm-106 3c0-56.2-27-100-66.1-100-24.4 0-39.9 8.6-51 21l0.4 159.3c10.3 11.2 25.3 20.2 50.6 20.2 39.5 0 66.1-43 66.1-100.5z"/>
		<path id="Layer" class="s0" d="m728.7 110.3l107.7-23.1v-87.2l-107.7 22.8z"/>
		<path id="Layer" class="s0" d="m728.7 143h107.7v375.6h-107.7z"/>
		<path id="Layer" fill-rule="evenodd" class="s0" d="m613.3 174.7l-6.9-31.7h-92.7v375.6h107.3v-254.6c25.3-33 68.2-27 81.5-22.3v-98.7c-13.7-5.2-63.9-14.6-89.2 31.7z"/>
		<path id="Layer" fill-rule="evenodd" class="s0" d="m398.7 49.8l-104.7 22.3-0.4 343.9c0 63.6 47.6 110.4 111.1 110.4 35.2 0 60.9-6.5 75.1-14.2v-87.2c-13.7 5.6-81.5 25.4-81.5-38.2v-152.4h81.5v-91.4h-81.5z"/>
		<path id="Layer" fill-rule="evenodd" class="s0" d="m108.6 252c0-16.7 13.7-23.2 36.5-23.2 32.6 0 73.8 9.9 106.4 27.5v-100.9c-35.6-14.1-70.8-19.7-106.4-19.7-87.2 0-145.1 45.5-145.1 121.5 0 118.5 163.1 99.6 163.1 150.7 0 19.7-17.2 26.2-41.2 26.2-35.6 0-81.1-14.6-117.2-34.4v102.2c39.9 17.2 80.3 24.5 117.2 24.5 89.3 0 150.6-44.3 150.6-121.1-0.4-128-163.9-105.2-163.9-153.3z"/>
	</g>
</svg>