<?xml version="1.0" encoding="UTF-8"?>
<svg id="Layer_2" data-name="Layer 2" xmlns="http://www.w3.org/2000/svg" viewBox="0 0 3644.53 821.72">
  <g id="Layer_1-2" data-name="Layer 1">
    <g>
      <polygon points="948.89 821.69 0 821.72 474.5 0 948.89 821.69"/>
      <path d="M1948.69,519.69l97.99,56.79c-78.87,96.7-228.43,115.18-337.84,61.61-58.34-28.56-101.68-77.97-118.45-140.6-12.82-47.9-10.47-97.67,5.88-144.32,47.51-135.52,208.13-175.66,331.45-129.61,106.07,39.61,158.56,146.75,137.83,257.87l-358.75.52c10.47,28.67,30.55,49.31,55.43,63.34,56.99,32.14,139.71,24.71,186.45-25.6ZM1946.92,391.07c-12.64-40.64-42.31-66.29-78.56-77.06-28.91-7.69-57.87-7.77-86.56.65-36.05,11.35-64.64,37.71-76.37,76.66l241.49-.26Z"/>
      <path d="M3285.63,551.42c17.74-8.27,31.33-18.05,44.07-31.75l99.19,56.72c-79.67,96.12-227.34,114.86-335.86,63.22-56.23-27.57-99.52-72.89-118.38-132.84-16.44-52.28-14.21-108.33,5.24-159.43,18.09-47.54,51.43-84.79,95.55-109.46,72.97-40.8,174.21-42.98,249.65-7.64,97.13,44.95,141.29,147.47,121.91,251.34l-358.82.38c29.77,78.11,127.59,99.87,197.46,69.47ZM3328.44,391.03c-12.67-40.52-42.14-66.2-78.48-76.99-66.43-17.79-141.35,5.17-163.05,77.46l241.53-.47Z"/>
      <path d="M1542.34,64.48l133.61.11-355.43,616.02L967.38,69.19c-2.88-1.66-4.35-2.88-3.1-4.99l133.98.37,222.06,384.39,222.02-384.47Z"/>
      <path d="M2668.22,558.08c29.44,8.77,57.98,8.65,86.65,1.28,31.52-8.57,56.25-29.35,72.2-57.61l98.3,56.62c-24.62,42.26-62.72,72-107.97,90.59-132.29,49.55-300.8,1.32-339.11-147.63-10.24-39.82-10.88-80.05-2.27-120.2,33.08-154.09,202.22-207.04,338.19-158.26,46.32,18.17,85.02,47.76,111.23,91.52l-98.61,56.96c-15.73-28.96-40.21-48.52-70.74-57.25-30.36-8.27-61.23-7.83-91.1,2.02-68.56,23.48-91.43,97.73-73.52,162.54,10.53,38.1,38.49,67.07,76.75,79.42Z"/>
      <path d="M2432.33,342.55c-23.15-5.93-47.57-8.2-73.31-2.71-54.6,11.65-91.68,55.49-96.18,111.89l-.57,202.67-115.43.14-.03-436.02h115.22s1.82,96.47,1.82,96.47c23.38-68.68,103.25-97.22,168.07-96.57l.42,124.13Z"/>
      <polygon points="3644.53 654.34 3528.46 654.61 3528.44 64.62 3644.4 64.4 3644.53 654.34"/>
    </g>
  </g>
</svg>