<?xml version="1.0" encoding="UTF-8"?>
<svg id="Layer_2" data-name="Layer 2" xmlns="http://www.w3.org/2000/svg" viewBox="0 0 2633.67 664.22">
  <g id="Layer_1-2" data-name="Layer 1">
    <g>
      <path d="M503.56,616.61c-51.68,31.39-109.56,47.28-169.6,47.6-63.02.34-123.88-16.74-177.19-50.07-44.23-27.65-80.97-64.81-108.27-109.24C16.49,452.82.09,393.83,0,332.59c-.09-61.81,16.46-121.37,48.88-173.88,26.67-43.19,62.25-79.38,104.99-106.77C207.28,17.72,268.47.02,332.04,0c60.97-.02,119.8,16.17,171.78,47.79,46.38,28.21,84.86,66.72,113.02,113.14,29.48,48.61,45.53,103.22,47.35,160.15,2.15,67.36-15.5,132.68-51.8,189.35-27.66,43.18-64.57,79.29-108.84,106.18ZM345.6,147.13l170.83-.3c-29.98-30.52-65.31-52.21-104.58-65.24-51.72-16.15-107.13-16.1-158.67-.21-95.98,31.38-166.3,116.07-178.21,217.46l82.13.2c6.18-40.6,25.54-76.81,55.66-103.82,36.56-32.14,84.12-48.01,132.84-48.09ZM231.76,298.78h357.36c-3.17-30.48-12.19-58.99-25.3-85.48l-214.34.06c-36.18.8-68.4,11.26-92.93,38.06-12.01,13.13-21.3,28.93-24.8,47.36ZM340.23,518.43c-33.96-.12-65.67-8.99-94.53-24.77-47.76-26.12-80.36-72.1-88.52-126.73l-82.12-.09c12.15,99.14,80.78,183,175.11,215.1,52.64,17.05,109.49,17.25,162.5.53,38.1-12.83,72.66-33.66,102.29-63.44l-174.74-.6ZM563.43,452.13c13.34-27.97,22.49-55.57,25.57-85.44H231.43c4.33,21.05,15.3,39.05,30.44,53.31,24.36,22.95,55.13,31.79,88.59,32.23l212.96-.11Z"/>
      <path d="M1131.44,472.45l-64.17-248.73-64.16,246.31c-7.17,25.12-22.86,47.9-49.44,53.78-13.62,3.01-27.44,2.94-40.98-.51-25.07-6.39-40.11-26.5-48.1-50.37l-96.18-325.83,90.17-.07,77.83,289.6,63.92-245.17c5.49-21.07,21.13-37.97,41.09-45.61,18.41-7.05,38.84-6.17,56.6,1.72,18.77,8.34,31.07,24.51,37.34,43.99l64.6,245.62,76.86-290.15,89.44.04-95.19,324.92c-8.15,24.19-22.5,44.92-48.19,51.3-14.06,3.49-28.47,3.57-42.58.21-25.89-6.15-41.12-25.55-48.88-51.07Z"/>
      <path d="M2440,528.16c-94.19,6.82-173.03-45.65-196.26-138.14-8.37-33.33-9.11-67.62-2.78-101.43,6.11-32.66,19.81-62.76,40.94-88.24,42.14-50.81,108.18-70.47,172.51-61.27,26.38,3.77,50.24,14.19,70.95,30.42,8.53,6.68,14.82,14.14,22.45,22.8l.15-187.84,85.71.04v513.92s-85.7-.08-85.7-.08l-.07-42.92c.41-1.89-.76-3.85-1.87-1.6-24.47,34.18-65.48,51.4-106.04,54.34ZM2538.71,387.7c27.17-61.68,5.45-144.09-62.03-168.81-20.85-7.64-42.71-8.7-64.57-4.77-31.05,5.58-56.76,25.04-71.91,52.52-20.49,37.17-21.46,87.44-3.42,125.73,12.6,26.75,34.67,47.6,63.29,56.22,55.35,16.67,114.37-5.79,138.64-60.89Z"/>
      <path d="M1777.65,332.7c-.31,111.58-86.9,194.94-197.71,196.23-113.01,1.32-202.94-83.92-202.36-197.3.57-111.09,89.15-195.12,199.47-194.82,35.87.1,70.26,8.15,101.25,25.39,62.11,34.56,99.56,99.41,99.36,170.5ZM1690.75,340.29c1.01-21.17-2.03-41.43-10.56-60.65-12.19-27.46-33.95-48.77-62.06-59.38-16.14-6.09-32.54-7.59-49.75-6.49-33.81,2.17-63.83,19.78-82.61,47.86-26.26,39.26-27.79,94.41-4.79,134.96,20.6,36.32,58.26,57.02,99.93,55.76,63.6-1.92,106.93-50.92,109.84-112.07Z"/>
      <path d="M2226.11,448.04l.16,72.84c-32.11.5-65.2-2.41-93.05-18.97-33.65-20-44.74-55.93-46.13-93.73l-.03-403.66,85.73-.1.04,390.34c1.37,21.24,6.13,41.28,27.71,48.97,7.96,2.83,15.65,3.84,25.57,4.31Z"/>
      <path d="M1912.28,344.7l-.05,173.91-85.92-.02-.03-371.64,85.17-.08.55,69.7c10.8-25.12,26.81-44.51,50.38-57.11,22.12-12.78,47.34-17.98,72.84-17.34l.02,85.45c-13.59.65-26.76,1.24-40.12,4.39-12.69,2.84-24.39,7.01-35.45,13.69-36.22,21.16-45.68,58.43-47.41,99.05Z"/>
    </g>
  </g>
</svg>